<svg width="21" height="21" viewBox="0 0 21 21" fill="none" xmlns="http://www.w3.org/2000/svg">
<path d="M10.5 0.875977C13.217 0.875977 13.556 0.885977 14.622 0.935977C15.687 0.985977 16.412 1.15298 17.05 1.40098C17.71 1.65498 18.266 1.99898 18.822 2.55398C19.3305 3.05387 19.724 3.65857 19.975 4.32598C20.222 4.96298 20.39 5.68898 20.44 6.75398C20.487 7.81998 20.5 8.15898 20.5 10.876C20.5 13.593 20.49 13.932 20.44 14.998C20.39 16.063 20.222 16.788 19.975 17.426C19.7247 18.0938 19.3311 18.6986 18.822 19.198C18.322 19.7063 17.7173 20.0997 17.05 20.351C16.413 20.598 15.687 20.766 14.622 20.816C13.556 20.863 13.217 20.876 10.5 20.876C7.783 20.876 7.444 20.866 6.378 20.816C5.313 20.766 4.588 20.598 3.95 20.351C3.28233 20.1005 2.67753 19.7069 2.178 19.198C1.66941 18.6982 1.27593 18.0934 1.025 17.426C0.777 16.789 0.61 16.063 0.56 14.998C0.513 13.932 0.5 13.593 0.5 10.876C0.5 8.15898 0.51 7.81998 0.56 6.75398C0.61 5.68798 0.777 4.96398 1.025 4.32598C1.27524 3.65816 1.6688 3.0533 2.178 2.55398C2.67767 2.04521 3.28243 1.65171 3.95 1.40098C4.588 1.15298 5.312 0.985977 6.378 0.935977C7.444 0.888977 7.783 0.875977 10.5 0.875977ZM10.5 5.87598C9.17392 5.87598 7.90215 6.40276 6.96447 7.34044C6.02678 8.27812 5.5 9.54989 5.5 10.876C5.5 12.2021 6.02678 13.4738 6.96447 14.4115C7.90215 15.3492 9.17392 15.876 10.5 15.876C11.8261 15.876 13.0979 15.3492 14.0355 14.4115C14.9732 13.4738 15.5 12.2021 15.5 10.876C15.5 9.54989 14.9732 8.27812 14.0355 7.34044C13.0979 6.40276 11.8261 5.87598 10.5 5.87598ZM17 5.62598C17 5.29446 16.8683 4.97651 16.6339 4.74209C16.3995 4.50767 16.0815 4.37598 15.75 4.37598C15.4185 4.37598 15.1005 4.50767 14.8661 4.74209C14.6317 4.97651 14.5 5.29446 14.5 5.62598C14.5 5.9575 14.6317 6.27544 14.8661 6.50986C15.1005 6.74428 15.4185 6.87598 15.75 6.87598C16.0815 6.87598 16.3995 6.74428 16.6339 6.50986C16.8683 6.27544 17 5.9575 17 5.62598ZM10.5 7.87598C11.2956 7.87598 12.0587 8.19205 12.6213 8.75466C13.1839 9.31726 13.5 10.0803 13.5 10.876C13.5 11.6716 13.1839 12.4347 12.6213 12.9973C12.0587 13.5599 11.2956 13.876 10.5 13.876C9.70435 13.876 8.94129 13.5599 8.37868 12.9973C7.81607 12.4347 7.5 11.6716 7.5 10.876C7.5 10.0803 7.81607 9.31726 8.37868 8.75466C8.94129 8.19205 9.70435 7.87598 10.5 7.87598Z" fill="white"/>
</svg>
