<svg width="19" height="19" viewBox="0 0 19 19" fill="none" xmlns="http://www.w3.org/2000/svg">
<path d="M15.585 16.215H12.92V12.038C12.92 11.042 12.9 9.75998 11.53 9.75998C10.141 9.75998 9.929 10.844 9.929 11.965V16.215H7.263V7.62598H9.823V8.79598H9.858C10.216 8.12198 11.086 7.40898 12.386 7.40898C15.086 7.40898 15.586 9.18698 15.586 11.5V16.215H15.585ZM4.253 6.45098C4.04956 6.45124 3.84806 6.41135 3.66006 6.33358C3.47207 6.25582 3.30127 6.14172 3.15746 5.99781C3.01365 5.85391 2.89965 5.68304 2.82201 5.49499C2.74437 5.30694 2.7046 5.10542 2.705 4.90198C2.7052 4.59581 2.79618 4.29658 2.96644 4.04212C3.1367 3.78767 3.37859 3.58941 3.66153 3.47243C3.94447 3.35545 4.25574 3.32499 4.55598 3.38492C4.85622 3.44484 5.13196 3.59245 5.34831 3.80908C5.56466 4.02571 5.71191 4.30164 5.77145 4.60196C5.83099 4.90228 5.80013 5.21351 5.68278 5.49629C5.56543 5.77908 5.36687 6.02072 5.11219 6.19065C4.85751 6.36058 4.55917 6.45117 4.253 6.45098ZM5.589 16.215H2.916V7.62598H5.59V16.215H5.589ZM16.92 0.875977H1.579C0.843 0.875977 0.25 1.45598 0.25 2.17298V17.579C0.25 18.296 0.844 18.876 1.578 18.876H16.916C17.65 18.876 18.25 18.296 18.25 17.579V2.17298C18.25 1.45598 17.65 0.875977 16.916 0.875977H16.92Z" fill="white"/>
</svg>
