<svg width="21" height="21" viewBox="0 0 21 21" fill="none" xmlns="http://www.w3.org/2000/svg">
<path d="M11.37 0.970298C8.97727 0.641152 6.54625 1.18885 4.52583 2.51226C2.50541 3.83566 1.03205 5.8454 0.377804 8.17036C-0.276443 10.4953 -0.0673876 12.9785 0.966367 15.1614C2.00012 17.3442 3.78876 19.0793 6.002 20.0463C5.94215 19.2781 5.99709 18.5053 6.165 17.7533C6.35 16.9143 7.461 12.2903 7.461 12.2903C7.23977 11.7944 7.12921 11.2563 7.137 10.7133C7.137 9.2283 7.994 8.1203 9.06 8.1203C9.25151 8.11751 9.44137 8.15599 9.61668 8.23313C9.79199 8.31026 9.94863 8.42424 10.076 8.56732C10.2033 8.7104 10.2983 8.87921 10.3546 9.06229C10.4108 9.24537 10.427 9.43841 10.402 9.6283C10.402 10.5283 9.824 11.8903 9.522 13.1683C9.46232 13.4027 9.45853 13.6478 9.51095 13.8839C9.56336 14.12 9.67051 14.3405 9.82376 14.5276C9.97701 14.7147 10.1721 14.8632 10.3932 14.9611C10.6144 15.0591 10.8555 15.1036 11.097 15.0913C12.995 15.0913 14.267 12.6603 14.267 9.7903C14.267 7.5903 12.81 5.9423 10.124 5.9423C9.48138 5.91733 8.84038 6.02322 8.23994 6.25355C7.63949 6.48388 7.09212 6.83384 6.63105 7.28219C6.16999 7.73053 5.80486 8.2679 5.55783 8.86167C5.31079 9.45544 5.18701 10.0932 5.194 10.7363C5.16537 11.4496 5.39551 12.1493 5.842 12.7063C5.92544 12.7686 5.98636 12.8563 6.01558 12.9562C6.0448 13.0562 6.04074 13.1629 6.004 13.2603C5.958 13.4443 5.842 13.8833 5.796 14.0443C5.78644 14.0989 5.76418 14.1505 5.73103 14.1949C5.69787 14.2393 5.65475 14.2754 5.60513 14.3001C5.55552 14.3248 5.50079 14.3375 5.44536 14.3372C5.38993 14.3369 5.33534 14.3236 5.286 14.2983C3.902 13.7443 3.25 12.2213 3.25 10.4823C3.25 7.6353 5.634 4.2273 10.404 4.2273C14.2 4.2273 16.724 7.0043 16.724 9.9743C16.724 13.8833 14.547 16.8223 11.33 16.8223C10.8492 16.8377 10.3723 16.7316 9.94334 16.5138C9.5144 16.296 9.14731 15.9736 8.876 15.5763C8.876 15.5763 8.298 17.8923 8.184 18.3303C7.9513 19.087 7.60791 19.8051 7.165 20.4613C8.088 20.7413 9.047 20.8813 10.011 20.8773C11.3246 20.8783 12.6255 20.6203 13.8392 20.1179C15.0529 19.6155 16.1556 18.8786 17.0841 17.9494C18.0126 17.0202 18.7487 15.9171 19.2503 14.703C19.7518 13.4889 20.009 12.1879 20.007 10.8743C20.0058 8.4593 19.1308 6.12629 17.5436 4.30608C15.9565 2.48586 13.7643 1.30136 11.372 0.971298L11.37 0.970298Z" fill="white"/>
</svg>
