<svg width="21" height="18" viewBox="0 0 21 18" fill="none" xmlns="http://www.w3.org/2000/svg">
<path d="M20.912 2.5319C20.1486 2.8696 19.339 3.09138 18.51 3.1899C19.3837 2.66734 20.0377 1.84492 20.35 0.875903C19.53 1.3639 18.631 1.7059 17.694 1.8909C17.0646 1.21748 16.2304 0.770866 15.3209 0.620488C14.4115 0.470109 13.4779 0.624394 12.6653 1.05936C11.8526 1.49432 11.2064 2.18559 10.8271 3.0257C10.4478 3.8658 10.3567 4.80768 10.568 5.7049C8.9051 5.62156 7.27832 5.18943 5.79328 4.43657C4.30823 3.68371 2.99812 2.62695 1.94799 1.3349C1.57628 1.97335 1.38095 2.69913 1.38199 3.4379C1.38199 4.8879 2.11999 6.1689 3.24199 6.9189C2.578 6.898 1.92862 6.71868 1.34799 6.3959V6.4479C1.34819 7.4136 1.68236 8.34952 2.29384 9.09696C2.90532 9.84441 3.75647 10.3574 4.70299 10.5489C4.08661 10.7159 3.4403 10.7406 2.81299 10.6209C3.07986 11.4521 3.6 12.1791 4.30058 12.7C5.00117 13.2209 5.84712 13.5097 6.71999 13.5259C5.85247 14.2072 4.85917 14.7109 3.79687 15.0081C2.73458 15.3053 1.62412 15.3902 0.528992 15.2579C2.44069 16.4873 4.66609 17.14 6.93899 17.1379C14.632 17.1379 18.839 10.7649 18.839 5.2379C18.839 5.0579 18.834 4.8759 18.826 4.6979C19.6449 4.10607 20.3516 3.37292 20.913 2.5329L20.912 2.5319Z" fill="white"/>
</svg>
